<svg width="16" height="14" viewBox="0 0 16 14" fill="none" xmlns="http://www.w3.org/2000/svg">
<path d="M13.3166 0H2.59619C1.1699 0 0.0136249 1.15628 0.0136249 2.58272V9.82237C-0.00454164 9.90874 -0.00454164 9.99794 0.0136249 10.0843V11.4173C0.0136249 12.8436 1.1699 14 2.59634 14H13.3168C14.7431 14 15.8995 12.8437 15.8995 11.4173V2.58272C15.8995 1.15643 14.7432 0 13.3168 0H13.3166ZM2.59619 1.27148H13.3166C14.0397 1.27148 14.6279 1.85964 14.6279 2.58272V8.00838L12.9654 6.35944C12.5061 5.90389 11.897 5.65127 11.2502 5.64785C10.6038 5.64459 9.99158 5.89085 9.52764 6.34159L6.63873 9.14774L5.01836 8.12297C4.63018 7.87732 4.18078 7.74567 3.72141 7.74303C3.26197 7.74039 2.81154 7.86631 2.41996 8.10744L1.28495 8.8063V2.58272C1.28495 1.85964 1.87311 1.27148 2.59619 1.27148ZM13.3166 12.7285H2.59619C1.87311 12.7285 1.28495 12.1404 1.28495 11.4173V10.2994L3.08652 9.18997C3.46833 8.95489 3.95975 8.95784 4.3386 9.19742L6.38238 10.4899C6.63066 10.647 6.95439 10.6133 7.16509 10.4087L10.4134 7.25347C10.8726 6.80755 11.6157 6.81143 12.0701 7.26217L14.628 9.79908V11.4173C14.628 12.1404 14.0399 12.7285 13.3168 12.7285H13.3166Z" fill="#4A4A4A"/>
</svg>
