<svg width="16" height="14" viewBox="0 0 16 14" fill="none" xmlns="http://www.w3.org/2000/svg">
<path d="M9.7772 0C10.3855 0 10.9501 0.328789 11.2503 0.858069L11.8525 1.91949H13.1309C14.5611 1.91949 15.7247 3.08276 15.7247 4.51299V11.4061C15.7247 12.8364 14.5611 14 13.1309 14H2.59386C1.16363 14 0 12.8364 0 11.4061V4.51299C0 3.08276 1.16363 1.91913 2.59386 1.91913H3.87257L4.4744 0.858069C4.62253 0.597852 4.83687 0.381448 5.09565 0.230813C5.35442 0.0801769 5.64844 0.000669681 5.94787 0.000357333H9.7772V0ZM9.7772 1.42952H5.94787C5.90108 1.4295 5.85513 1.4419 5.8147 1.46544C5.77426 1.48899 5.7408 1.52284 5.71772 1.56354L4.91004 2.98662C4.84763 3.09646 4.75726 3.18782 4.6481 3.25141C4.53894 3.31499 4.41489 3.34855 4.28856 3.34865H2.59422C2.28547 3.34893 1.98944 3.47168 1.77109 3.68997C1.55274 3.90825 1.4299 4.20424 1.42952 4.51299V11.4061C1.4299 11.7148 1.55269 12.0108 1.77097 12.229C1.98924 12.4473 2.28518 12.5701 2.59386 12.5705H13.1309C13.4395 12.5701 13.7355 12.4473 13.9537 12.229C14.172 12.0108 14.2948 11.7148 14.2952 11.4061V4.51299C14.2949 4.20428 14.1721 3.90829 13.9539 3.68999C13.7356 3.4717 13.4396 3.34893 13.1309 3.34865H11.4362C11.1788 3.34865 10.9415 3.21034 10.8143 2.98662L10.0066 1.56354C9.98365 1.52299 9.95035 1.48925 9.91012 1.46571C9.8699 1.44218 9.82416 1.42969 9.77756 1.42952H9.7772ZM7.98136 4.2371C10.0342 4.2371 11.7042 5.90713 11.7042 7.95957C11.7042 10.0124 10.0342 11.6824 7.98136 11.6824C5.92857 11.6824 4.25854 10.0124 4.25854 7.95957C4.25854 5.90713 5.92857 4.2371 7.98136 4.2371ZM7.98136 5.66662C7.37338 5.66718 6.79045 5.90893 6.36051 6.33881C5.93056 6.76869 5.68872 7.35158 5.68806 7.95957C5.68872 8.56758 5.93055 9.15051 6.36048 9.58045C6.79042 10.0104 7.37334 10.2522 7.98136 10.2529C8.58936 10.2521 9.17223 10.0103 9.60214 9.58034C10.0321 9.15043 10.2739 8.56756 10.2747 7.95957C10.2739 7.35161 10.032 6.76877 9.60212 6.33891C9.17219 5.90906 8.58932 5.66728 7.98136 5.66662ZM12.4986 3.95405C12.5917 3.95403 12.6838 3.97233 12.7698 4.00791C12.8558 4.0435 12.9339 4.09567 12.9997 4.16144C13.0655 4.22722 13.1177 4.30531 13.1533 4.39126C13.189 4.47721 13.2073 4.56934 13.2073 4.66238C13.2074 4.75542 13.1891 4.84756 13.1535 4.93353C13.1179 5.01949 13.0657 5.09761 12.9999 5.16342C12.9342 5.22923 12.8561 5.28143 12.7701 5.31706C12.6842 5.35269 12.592 5.37104 12.499 5.37106C12.3111 5.37111 12.1309 5.29651 11.998 5.16367C11.8651 5.03084 11.7904 4.85064 11.7903 4.66274C11.7903 4.47483 11.8649 4.2946 11.9977 4.16169C12.1305 4.02879 12.3107 3.9541 12.4986 3.95405Z" fill="#4A4A4A"/>
</svg>
