<?xml version="1.0" standalone="no"?><!DOCTYPE svg PUBLIC "-//W3C//DTD SVG 1.1//EN" "http://www.w3.org/Graphics/SVG/1.1/DTD/svg11.dtd"><svg t="1729152740496" class="icon" viewBox="0 0 1024 1024" version="1.1" xmlns="http://www.w3.org/2000/svg" p-id="912" xmlns:xlink="http://www.w3.org/1999/xlink" width="200" height="200"><path d="M477.376 128a349.376 349.376 0 0 1 275.712 564.032c1.664 1.216 3.328 2.624 4.864 4.16l125.952 125.952c16.64 16.64 16.64 43.712 0 60.352l-1.408 1.408a42.688 42.688 0 0 1-60.352 0l-125.952-125.952a43.008 43.008 0 0 1-4.224-4.928A349.376 349.376 0 1 1 477.44 128z m0 87.36a262.016 262.016 0 1 0 0 524.032 262.016 262.016 0 0 0 0-524.032z" p-id="913"></path></svg>