<?xml version="1.0" standalone="no"?><!DOCTYPE svg PUBLIC "-//W3C//DTD SVG 1.1//EN" "http://www.w3.org/Graphics/SVG/1.1/DTD/svg11.dtd"><svg t="1731360577194" class="icon" viewBox="0 0 1024 1024" version="1.1" xmlns="http://www.w3.org/2000/svg" p-id="2391" xmlns:xlink="http://www.w3.org/1999/xlink" width="200" height="200"><path d="M170.666667 341.333333a42.666667 42.666667 0 0 1 42.666666-42.666666h640a42.666667 42.666667 0 1 1 0 85.333333H213.333333a42.666667 42.666667 0 0 1-42.666666-42.666667zM128 682.666667a42.666667 42.666667 0 0 1 42.666667-42.666667h640a42.666667 42.666667 0 1 1 0 85.333333H170.666667a42.666667 42.666667 0 0 1-42.666667-42.666666z" fill="#4A4A4A" p-id="2392"></path><path d="M245.632 894.72a42.666667 42.666667 0 0 1-31.018667-51.712l170.666667-682.666667a42.666667 42.666667 0 1 1 82.773333 20.693334l-170.666666 682.666666a42.666667 42.666667 0 0 1-51.754667 31.018667zM587.008 894.72a42.666667 42.666667 0 0 1-31.061333-51.712l170.666666-682.666667a42.666667 42.666667 0 0 1 82.773334 20.693334l-170.666667 682.666666a42.666667 42.666667 0 0 1-51.754667 31.018667z" fill="#4A4A4A" p-id="2393"></path></svg>