<svg width="12" height="12" viewBox="0 0 12 12" fill="none" xmlns="http://www.w3.org/2000/svg">
<path d="M2.60087 6.71183L2.6049 6.71595L5.9038 9.97063C6.03456 10.0997 6.20193 10.1724 6.37598 10.1755C6.55003 10.1787 6.71941 10.1122 6.85383 9.98793L10.255 6.83955C10.5429 6.60277 10.7817 6.29873 10.955 5.94836C11.1283 5.59799 11.2321 5.2096 11.259 4.8099C11.286 4.41019 11.2356 4.00866 11.1113 3.63293C10.987 3.25719 10.7918 2.91617 10.539 2.63331C10.2862 2.35045 9.98187 2.13248 9.64695 1.99437C9.31203 1.85626 8.95447 1.80131 8.59884 1.83328C8.24322 1.86525 7.89798 1.9834 7.58687 2.17959C7.27577 2.37578 7.00617 2.64536 6.79663 2.96978L6.5 3.42914L6.20336 2.9706C5.99839 2.65318 5.73587 2.38817 5.43312 2.19303C5.13036 1.99789 4.79424 1.87705 4.44689 1.83849C4.09955 1.79992 3.74888 1.84449 3.41799 1.96928C3.08709 2.09406 2.78349 2.29621 2.52718 2.56241C2.27088 2.82862 2.06769 3.15283 1.93101 3.51368C1.79433 3.87454 1.72726 4.26384 1.73422 4.65593C1.74119 5.04802 1.82202 5.43401 1.9714 5.78845C2.12078 6.14289 2.33532 6.45774 2.60087 6.71224V6.71183ZM1 4.59959C0.999987 3.88342 1.19011 3.18352 1.54605 2.58942C1.90199 1.99533 2.40757 1.53403 2.99811 1.26455C3.58866 0.995066 4.23733 0.929643 4.86115 1.07665C5.48497 1.22365 6.05558 1.57641 6.5 2.08978C6.94441 1.57641 7.51502 1.22365 8.13884 1.07665C8.76266 0.929643 9.41133 0.995066 10.0019 1.26455C10.5924 1.53403 11.098 1.99533 11.4539 2.58942C11.8099 3.18352 12 3.88342 12 4.59959C12.0012 5.16179 11.8846 5.71642 11.6596 6.21858C11.4346 6.72074 11.1076 7.15632 10.7049 7.49007L7.3206 10.6236C7.05184 10.8726 6.713 11.0059 6.36473 10.9998C6.01647 10.9937 5.6815 10.8485 5.4198 10.5902L2.12273 7.3364C1.77033 6.99882 1.48741 6.57924 1.29355 6.1067C1.0997 5.63415 0.999537 5.11992 1 4.59959Z" fill="#4A5568"/>
</svg>
