<svg width="27" height="27" viewBox="0 0 27 27" fill="none" xmlns="http://www.w3.org/2000/svg">
<g clip-path="url(#clip0_241_7962)">
<path d="M8.89638 9.0127C8.42817 9.0127 7.95996 9.32483 7.95996 9.79304C7.95996 10.2613 8.42817 10.5734 8.89638 10.5734C9.36458 10.5734 9.67672 10.2613 9.67672 9.79304C9.67672 9.30533 9.36458 9.0127 8.89638 9.0127ZM15.2367 13.5387C14.9246 13.5387 14.6319 13.8704 14.6319 14.163C14.6319 14.4946 14.9441 14.7873 15.2367 14.7873C15.7049 14.7873 16.017 14.4751 16.017 14.163C16.017 13.8508 15.7049 13.5387 15.2367 13.5387ZM13.2273 10.5734C13.6955 10.5734 14.0076 10.2417 14.0076 9.79304C14.0076 9.32483 13.6955 9.0127 13.2273 9.0127C12.7591 9.0127 12.2909 9.32483 12.2909 9.79304C12.2909 10.2613 12.7591 10.5734 13.2273 10.5734ZM18.6312 13.5387C18.3191 13.5387 18.0264 13.8704 18.0264 14.163C18.0264 14.4946 18.3386 14.7873 18.6312 14.7873C19.0994 14.7873 19.4116 14.4751 19.4116 14.163C19.4116 13.8508 19.0994 13.5387 18.6312 13.5387Z" fill="#28C445"/>
<path d="M13.461 0.078125C6.02818 0.078125 0 6.1063 0 13.5391C0 20.9719 6.02818 27.0001 13.461 27.0001C20.8938 27.0001 26.922 20.9719 26.922 13.5391C26.922 6.1063 20.8938 0.078125 13.461 0.078125ZM10.9053 16.9921C10.125 16.9921 9.50072 16.8361 8.75939 16.6605L6.61344 17.753L7.21821 15.8606C5.67702 14.7682 4.74061 13.344 4.74061 11.6468C4.74061 8.66194 7.53035 6.3209 10.9053 6.3209C13.9292 6.3209 16.6019 8.19373 17.1286 10.7104C16.9335 10.6908 16.7384 10.6713 16.5434 10.6713C13.6171 10.7104 11.315 12.9148 11.315 15.646C11.315 16.0947 11.3931 16.5239 11.5101 16.9531C11.315 16.9726 11.1004 16.9921 10.9053 16.9921ZM20.0354 19.1771L20.5036 20.7378L18.8259 19.8014C18.2211 19.9575 17.5968 20.1135 16.9725 20.1135C14.0267 20.1135 11.7052 18.0846 11.7052 15.568C11.6857 13.0709 14.0072 11.042 16.9335 11.042C19.7233 11.042 22.1814 13.0904 22.1814 15.5875C22.1814 16.9921 21.2645 18.2407 20.0354 19.1771Z" fill="#28C445"/>
</g>
<defs>
<clipPath id="clip0_241_7962">
<rect width="27" height="27" fill="white"/>
</clipPath>
</defs>
</svg>
